<mxfile host="app.diagrams.net" agent="Mozilla/5.0 (Macintosh; Intel Mac OS X 10_15_7) AppleWebKit/537.36 (KHTML, like Gecko) Chrome/135.0.0.0 Safari/537.36" version="26.2.14">
  <diagram name="Page-1" id="hxq_1A5ANskcv5Tcrn2v">
    <mxGraphModel dx="925" dy="1394" grid="1" gridSize="10" guides="1" tooltips="1" connect="1" arrows="1" fold="1" page="1" pageScale="1" pageWidth="827" pageHeight="1169" math="0" shadow="0">
      <root>
        <mxCell id="0" />
        <mxCell id="1" parent="0" />
        <mxCell id="amXkMa5cYuzht5AST0yX-1" value="&lt;p style=&quot;margin: 0px; margin-top: 4px; text-align: center; text-decoration: underline;&quot;&gt;&lt;strong&gt;Role&lt;/strong&gt;&lt;/p&gt;&lt;hr /&gt;&lt;p style=&quot;margin: 0px; margin-left: 8px;&quot;&gt;IdCompany&lt;br /&gt;Name&lt;/p&gt;&lt;p style=&quot;margin: 0px; margin-left: 8px;&quot;&gt;Description&lt;/p&gt;&lt;p style=&quot;margin: 0px; margin-left: 8px;&quot;&gt;CreatedAt&lt;/p&gt;&lt;p style=&quot;margin: 0px; margin-left: 8px;&quot;&gt;UpdatedAt&lt;/p&gt;&lt;p style=&quot;margin: 0px; margin-left: 8px;&quot;&gt;Enabled&lt;/p&gt;" style="verticalAlign=top;align=left;overflow=fill;fontSize=12;fontFamily=Helvetica;html=1;strokeColor=#003366;shadow=1;fillColor=#D4E1F5;fontColor=#003366" vertex="1" parent="1">
          <mxGeometry x="290.0000000000001" y="90.00000000000007" width="160" height="120" as="geometry" />
        </mxCell>
        <mxCell id="amXkMa5cYuzht5AST0yX-2" value="&lt;p style=&quot;margin: 0px; margin-top: 4px; text-align: center; text-decoration: underline;&quot;&gt;&lt;strong&gt;Company&lt;/strong&gt;&lt;/p&gt;&lt;hr /&gt;&lt;p style=&quot;margin: 0px; margin-left: 8px;&quot;&gt;Name&lt;/p&gt;&lt;p style=&quot;margin: 0px; margin-left: 8px;&quot;&gt;Description&lt;/p&gt;&lt;p style=&quot;margin: 0px; margin-left: 8px;&quot;&gt;CreatedAt&lt;/p&gt;&lt;p style=&quot;margin: 0px; margin-left: 8px;&quot;&gt;UpdatedAt&lt;/p&gt;&lt;p style=&quot;margin: 0px; margin-left: 8px;&quot;&gt;Enabled&lt;/p&gt;" style="verticalAlign=top;align=left;overflow=fill;fontSize=12;fontFamily=Helvetica;html=1;strokeColor=#003366;shadow=1;fillColor=#D4E1F5;fontColor=#003366" vertex="1" parent="1">
          <mxGeometry x="290.00000000000006" y="300.8599999999994" width="160" height="125" as="geometry" />
        </mxCell>
        <mxCell id="amXkMa5cYuzht5AST0yX-3" value="&lt;p style=&quot;margin: 0px; margin-top: 4px; text-align: center; text-decoration: underline;&quot;&gt;&lt;strong&gt;Calendar&lt;/strong&gt;&lt;/p&gt;&lt;hr /&gt;&lt;p style=&quot;margin: 0px; margin-left: 8px;&quot;&gt;IdCalendar&lt;/p&gt;&lt;p style=&quot;margin: 0px; margin-left: 8px;&quot;&gt;IdCompany&lt;/p&gt;&lt;p style=&quot;margin: 0px; margin-left: 8px;&quot;&gt;Name&lt;/p&gt;&lt;p style=&quot;margin: 0px; margin-left: 8px;&quot;&gt;Description&lt;/p&gt;&lt;p style=&quot;margin: 0px; margin-left: 8px;&quot;&gt;ValidUntil&lt;/p&gt;&lt;p style=&quot;margin: 0px; margin-left: 8px;&quot;&gt;CreatedAt&lt;/p&gt;&lt;p style=&quot;margin: 0px; margin-left: 8px;&quot;&gt;UpdatedAt&lt;/p&gt;&lt;p style=&quot;margin: 0px; margin-left: 8px;&quot;&gt;Enabled&lt;/p&gt;" style="verticalAlign=top;align=left;overflow=fill;fontSize=12;fontFamily=Helvetica;html=1;strokeColor=#003366;shadow=1;fillColor=#D4E1F5;fontColor=#003366" vertex="1" parent="1">
          <mxGeometry x="20" y="283.35999999999945" width="160" height="160" as="geometry" />
        </mxCell>
        <mxCell id="amXkMa5cYuzht5AST0yX-4" value="&lt;p style=&quot;margin: 0px; margin-top: 4px; text-align: center; text-decoration: underline;&quot;&gt;&lt;strong&gt;User&lt;/strong&gt;&lt;/p&gt;&lt;hr /&gt;&lt;p style=&quot;margin: 0px; margin-left: 8px;&quot;&gt;IdUser&lt;/p&gt;&lt;p style=&quot;margin: 0px; margin-left: 8px;&quot;&gt;IdCompany&lt;/p&gt;&lt;p style=&quot;margin: 0px; margin-left: 8px;&quot;&gt;Name&lt;/p&gt;&lt;p style=&quot;margin: 0px; margin-left: 8px;&quot;&gt;LastName&lt;/p&gt;&lt;p style=&quot;margin: 0px; margin-left: 8px;&quot;&gt;Email&lt;/p&gt;&lt;p style=&quot;margin: 0px; margin-left: 8px;&quot;&gt;UserName&lt;/p&gt;&lt;p style=&quot;margin: 0px; margin-left: 8px;&quot;&gt;Password&lt;/p&gt;&lt;p style=&quot;margin: 0px; margin-left: 8px;&quot;&gt;CreatedAt&lt;/p&gt;&lt;p style=&quot;margin: 0px; margin-left: 8px;&quot;&gt;UpdatedAt&lt;/p&gt;&lt;p style=&quot;margin: 0px; margin-left: 8px;&quot;&gt;Enabled&lt;/p&gt;" style="verticalAlign=top;align=left;overflow=fill;fontSize=12;fontFamily=Helvetica;html=1;strokeColor=#003366;shadow=1;fillColor=#D4E1F5;fontColor=#003366" vertex="1" parent="1">
          <mxGeometry x="859.9999999999999" y="428.3599999999996" width="160.0000000000001" height="180" as="geometry" />
        </mxCell>
        <mxCell id="amXkMa5cYuzht5AST0yX-5" value="&lt;p style=&quot;margin: 0px; margin-top: 4px; text-align: center; text-decoration: underline;&quot;&gt;&lt;strong&gt;UserProjectRole&lt;/strong&gt;&lt;/p&gt;&lt;hr /&gt;&lt;p style=&quot;margin: 0px; margin-left: 8px;&quot;&gt;IdUserProjectRole&lt;/p&gt;&lt;p style=&quot;margin: 0px; margin-left: 8px;&quot;&gt;IdRole&lt;/p&gt;&lt;p style=&quot;margin: 0px; margin-left: 8px;&quot;&gt;IdProject&lt;/p&gt;&lt;p style=&quot;margin: 0px; margin-left: 8px;&quot;&gt;IdUser&lt;/p&gt;" style="verticalAlign=top;align=left;overflow=fill;fontSize=12;fontFamily=Helvetica;html=1;strokeColor=#003366;shadow=1;fillColor=#D4E1F5;fontColor=#003366" vertex="1" parent="1">
          <mxGeometry x="571.0800000000005" y="100.00000000000021" width="160" height="100" as="geometry" />
        </mxCell>
        <mxCell id="amXkMa5cYuzht5AST0yX-6" value="&lt;p style=&quot;margin: 0px; margin-top: 4px; text-align: center; text-decoration: underline;&quot;&gt;&lt;strong&gt;Client&lt;/strong&gt;&lt;/p&gt;&lt;hr /&gt;&lt;p style=&quot;margin: 0px; margin-left: 8px;&quot;&gt;IdClient&lt;/p&gt;&lt;p style=&quot;margin: 0px; margin-left: 8px;&quot;&gt;IdCompany&lt;/p&gt;&lt;p style=&quot;margin: 0px; margin-left: 8px;&quot;&gt;Name&lt;/p&gt;&lt;p style=&quot;margin: 0px; margin-left: 8px;&quot;&gt;Description&lt;/p&gt;&lt;p style=&quot;margin: 0px; margin-left: 8px;&quot;&gt;CreatedAt&lt;/p&gt;&lt;p style=&quot;margin: 0px; margin-left: 8px;&quot;&gt;UpdatedAt&lt;/p&gt;&lt;p style=&quot;margin: 0px; margin-left: 8px;&quot;&gt;Enabled&lt;/p&gt;" style="verticalAlign=top;align=left;overflow=fill;fontSize=12;fontFamily=Helvetica;html=1;strokeColor=#003366;shadow=1;fillColor=#D4E1F5;fontColor=#003366" vertex="1" parent="1">
          <mxGeometry x="290.0000000000002" y="555.3200000000003" width="160" height="150" as="geometry" />
        </mxCell>
        <mxCell id="amXkMa5cYuzht5AST0yX-7" value="&lt;p style=&quot;margin: 0px; margin-top: 4px; text-align: center; text-decoration: underline;&quot;&gt;&lt;strong&gt;Holiday&lt;/strong&gt;&lt;/p&gt;&lt;hr /&gt;&lt;p style=&quot;margin: 0px; margin-left: 8px;&quot;&gt;IdHoliday&lt;/p&gt;&lt;p style=&quot;margin: 0px; margin-left: 8px;&quot;&gt;IdCalendar&lt;/p&gt;&lt;p style=&quot;margin: 0px; margin-left: 8px;&quot;&gt;Name&lt;/p&gt;&lt;p style=&quot;margin: 0px; margin-left: 8px;&quot;&gt;Description&lt;/p&gt;&lt;p style=&quot;margin: 0px; margin-left: 8px;&quot;&gt;Date&lt;/p&gt;&lt;p style=&quot;margin: 0px; margin-left: 8px;&quot;&gt;CreatedAt&lt;/p&gt;&lt;p style=&quot;margin: 0px; margin-left: 8px;&quot;&gt;UpdatedAt&lt;/p&gt;&lt;p style=&quot;margin: 0px; margin-left: 8px;&quot;&gt;Enabled&lt;/p&gt;" style="verticalAlign=top;align=left;overflow=fill;fontSize=12;fontFamily=Helvetica;html=1;strokeColor=#003366;shadow=1;fillColor=#D4E1F5;fontColor=#003366" vertex="1" parent="1">
          <mxGeometry x="20.00000000000003" y="20" width="160" height="160" as="geometry" />
        </mxCell>
        <mxCell id="amXkMa5cYuzht5AST0yX-8" value="&lt;p style=&quot;margin: 0px; margin-top: 4px; text-align: center; text-decoration: underline;&quot;&gt;&lt;strong&gt;TimeSheet&lt;/strong&gt;&lt;/p&gt;&lt;hr /&gt;&lt;p style=&quot;margin: 0px; margin-left: 8px;&quot;&gt;IdTimeSheet&lt;/p&gt;&lt;p style=&quot;margin: 0px; margin-left: 8px;&quot;&gt;Name&lt;/p&gt;&lt;p style=&quot;margin: 0px; margin-left: 8px;&quot;&gt;Description&lt;/p&gt;&lt;p style=&quot;margin: 0px; margin-left: 8px;&quot;&gt;IdProject&lt;/p&gt;&lt;p style=&quot;margin: 0px; margin-left: 8px;&quot;&gt;CreatedAt&lt;/p&gt;&lt;p style=&quot;margin: 0px; margin-left: 8px;&quot;&gt;UpdatedAt&lt;/p&gt;&lt;p style=&quot;margin: 0px; margin-left: 8px;&quot;&gt;Enabled&lt;/p&gt;&lt;p style=&quot;margin: 0px; margin-left: 8px;&quot;&gt;IdUser&lt;/p&gt;" style="verticalAlign=top;align=left;overflow=fill;fontSize=12;fontFamily=Helvetica;html=1;strokeColor=#003366;shadow=1;fillColor=#D4E1F5;fontColor=#003366" vertex="1" parent="1">
          <mxGeometry x="1150" y="678.3599999999997" width="160" height="170" as="geometry" />
        </mxCell>
        <mxCell id="amXkMa5cYuzht5AST0yX-9" value="&lt;p style=&quot;margin: 0px; margin-top: 4px; text-align: center; text-decoration: underline;&quot;&gt;&lt;strong&gt;TimeSheetHour&lt;/strong&gt;&lt;/p&gt;&lt;hr /&gt;&lt;p style=&quot;margin: 0px; margin-left: 8px;&quot;&gt;IdTimeSheetHour&lt;br /&gt;IdTimeSheet&lt;/p&gt;&lt;p style=&quot;margin: 0px; margin-left: 8px;&quot;&gt;IdUser&lt;/p&gt;&lt;p style=&quot;margin: 0px; margin-left: 8px;&quot;&gt;IdTimeCategory&lt;/p&gt;&lt;p style=&quot;margin: 0px; margin-left: 8px;&quot;&gt;IdTask&lt;/p&gt;&lt;p style=&quot;margin: 0px; margin-left: 8px;&quot;&gt;Quantity&lt;/p&gt;&lt;p style=&quot;margin: 0px; margin-left: 8px;&quot;&gt;Description&lt;/p&gt;&lt;p style=&quot;margin: 0px; margin-left: 8px;&quot;&gt;IdProjectManager&lt;/p&gt;&lt;p style=&quot;margin: 0px; margin-left: 8px;&quot;&gt;CreatedAt&lt;/p&gt;&lt;p style=&quot;margin: 0px; margin-left: 8px;&quot;&gt;UpdatedAt&lt;/p&gt;&lt;p style=&quot;margin: 0px; margin-left: 8px;&quot;&gt;Enabled&lt;/p&gt;" style="verticalAlign=top;align=left;overflow=fill;fontSize=12;fontFamily=Helvetica;html=1;strokeColor=#003366;shadow=1;fillColor=#D4E1F5;fontColor=#003366" vertex="1" parent="1">
          <mxGeometry x="1150" y="418.35999999999956" width="160" height="200" as="geometry" />
        </mxCell>
        <mxCell id="amXkMa5cYuzht5AST0yX-10" value="&lt;p style=&quot;margin: 0px; margin-top: 4px; text-align: center; text-decoration: underline;&quot;&gt;&lt;strong&gt;Document&lt;/strong&gt;&lt;/p&gt;&lt;hr /&gt;&lt;p style=&quot;margin: 0px; margin-left: 8px;&quot;&gt;IdDocument&lt;/p&gt;&lt;p style=&quot;margin: 0px; margin-left: 8px;&quot;&gt;Name&lt;/p&gt;&lt;p style=&quot;margin: 0px; margin-left: 8px;&quot;&gt;Description&lt;/p&gt;&lt;p style=&quot;margin: 0px; margin-left: 8px;&quot;&gt;ValidFrom&lt;/p&gt;&lt;p style=&quot;margin: 0px; margin-left: 8px;&quot;&gt;ValidUntil&lt;/p&gt;&lt;p style=&quot;margin: 0px; margin-left: 8px;&quot;&gt;DocumentContents&lt;/p&gt;&lt;p style=&quot;margin: 0px; margin-left: 8px;&quot;&gt;CreatedAt&lt;/p&gt;&lt;p style=&quot;margin: 0px; margin-left: 8px;&quot;&gt;UpdateAt&lt;/p&gt;&lt;p style=&quot;margin: 0px; margin-left: 8px;&quot;&gt;Enabled&lt;/p&gt;" style="verticalAlign=top;align=left;overflow=fill;fontSize=12;fontFamily=Helvetica;html=1;strokeColor=#003366;shadow=1;fillColor=#D4E1F5;fontColor=#003366" vertex="1" parent="1">
          <mxGeometry x="109.99999999999986" y="879.52" width="160" height="180" as="geometry" />
        </mxCell>
        <mxCell id="amXkMa5cYuzht5AST0yX-11" value="&lt;p style=&quot;margin: 0px; margin-top: 4px; text-align: center; text-decoration: underline;&quot;&gt;&lt;strong&gt;Project&lt;/strong&gt;&lt;/p&gt;&lt;hr /&gt;&lt;p style=&quot;margin: 0px; margin-left: 8px;&quot;&gt;IdProject&lt;/p&gt;&lt;p style=&quot;margin: 0px; margin-left: 8px;&quot;&gt;IdClient&lt;/p&gt;&lt;p style=&quot;margin: 0px; margin-left: 8px;&quot;&gt;Name&lt;/p&gt;&lt;p style=&quot;margin: 0px; margin-left: 8px;&quot;&gt;Description&lt;/p&gt;&lt;p style=&quot;margin: 0px; margin-left: 8px;&quot;&gt;StartDate&lt;/p&gt;&lt;p style=&quot;margin: 0px; margin-left: 8px;&quot;&gt;EndDate&lt;/p&gt;&lt;p style=&quot;margin: 0px; margin-left: 8px;&quot;&gt;CreatedAt&lt;/p&gt;&lt;p style=&quot;margin: 0px; margin-left: 8px;&quot;&gt;UpdatedAt&lt;/p&gt;&lt;p style=&quot;margin: 0px; margin-left: 8px;&quot;&gt;Enabled&lt;br /&gt;IdProjectManager&lt;/p&gt;" style="verticalAlign=top;align=left;overflow=fill;fontSize=12;fontFamily=Helvetica;html=1;strokeColor=#003366;shadow=1;fillColor=#D4E1F5;fontColor=#003366" vertex="1" parent="1">
          <mxGeometry x="571.0800000000003" y="530.3200000000004" width="160" height="200" as="geometry" />
        </mxCell>
        <mxCell id="amXkMa5cYuzht5AST0yX-12" value="&lt;p style=&quot;margin: 0px; margin-top: 4px; text-align: center; text-decoration: underline;&quot;&gt;&lt;strong&gt;TimeCategory&lt;/strong&gt;&lt;/p&gt;&lt;hr /&gt;&lt;p style=&quot;margin: 0px; margin-left: 8px;&quot;&gt;IdTimeCategory&lt;/p&gt;&lt;p style=&quot;margin: 0px; margin-left: 8px;&quot;&gt;Name&lt;/p&gt;&lt;p style=&quot;margin: 0px; margin-left: 8px;&quot;&gt;Description&lt;/p&gt;&lt;p style=&quot;margin: 0px; margin-left: 8px;&quot;&gt;CreatedAt&lt;/p&gt;&lt;p style=&quot;margin: 0px; margin-left: 8px;&quot;&gt;UpdatedAt&lt;/p&gt;&lt;p style=&quot;margin: 0px; margin-left: 8px;&quot;&gt;Enabled&lt;/p&gt;" style="verticalAlign=top;align=left;overflow=fill;fontSize=12;fontFamily=Helvetica;html=1;strokeColor=#003366;shadow=1;fillColor=#D4E1F5;fontColor=#003366" vertex="1" parent="1">
          <mxGeometry x="1400.0000000000002" y="453.35999999999973" width="160" height="130" as="geometry" />
        </mxCell>
        <mxCell id="amXkMa5cYuzht5AST0yX-13" value="&lt;p style=&quot;margin: 0px; margin-top: 4px; text-align: center; text-decoration: underline;&quot;&gt;&lt;strong&gt;TimeSheetCostCenter&lt;/strong&gt;&lt;/p&gt;&lt;hr /&gt;&lt;p style=&quot;margin: 0px; margin-left: 8px;&quot;&gt;IdTimeSheetCostCenter&lt;/p&gt;&lt;p style=&quot;margin: 0px; margin-left: 8px;&quot;&gt;IdTimeSheet&lt;/p&gt;&lt;p style=&quot;margin: 0px; margin-left: 8px;&quot;&gt;IdCostCenter&lt;/p&gt;" style="verticalAlign=top;align=left;overflow=fill;fontSize=12;fontFamily=Helvetica;html=1;strokeColor=#003366;shadow=1;fillColor=#D4E1F5;fontColor=#003366" vertex="1" parent="1">
          <mxGeometry x="1150" y="910.8599999999993" width="160" height="95" as="geometry" />
        </mxCell>
        <mxCell id="amXkMa5cYuzht5AST0yX-14" value="&lt;p style=&quot;margin: 0px; margin-top: 4px; text-align: center; text-decoration: underline;&quot;&gt;&lt;strong&gt;CostCenter&lt;/strong&gt;&lt;/p&gt;&lt;hr /&gt;&lt;p style=&quot;margin: 0px; margin-left: 8px;&quot;&gt;IdCostCenter&lt;/p&gt;&lt;p style=&quot;margin: 0px; margin-left: 8px;&quot;&gt;Name&lt;/p&gt;&lt;p style=&quot;margin: 0px; margin-left: 8px;&quot;&gt;Description&lt;/p&gt;&lt;p style=&quot;margin: 0px; margin-left: 8px;&quot;&gt;CreatedAt&lt;/p&gt;&lt;p style=&quot;margin: 0px; margin-left: 8px;&quot;&gt;UpdatedAt&lt;/p&gt;&lt;p style=&quot;margin: 0px; margin-left: 8px;&quot;&gt;Enabled&lt;/p&gt;" style="verticalAlign=top;align=left;overflow=fill;fontSize=12;fontFamily=Helvetica;html=1;strokeColor=#003366;shadow=1;fillColor=#D4E1F5;fontColor=#003366" vertex="1" parent="1">
          <mxGeometry x="920.0000000000001" y="888.3599999999992" width="160" height="140" as="geometry" />
        </mxCell>
        <mxCell id="amXkMa5cYuzht5AST0yX-15" value="&lt;p style=&quot;margin: 0px; margin-top: 4px; text-align: center; text-decoration: underline;&quot;&gt;&lt;strong&gt;ProjectCostCenter&lt;/strong&gt;&lt;/p&gt;&lt;hr /&gt;&lt;p style=&quot;margin: 0px; margin-left: 8px;&quot;&gt;IdProjectCostCenter&lt;/p&gt;&lt;p style=&quot;margin: 0px; margin-left: 8px;&quot;&gt;IdProject&lt;/p&gt;&lt;p style=&quot;margin: 0px; margin-left: 8px;&quot;&gt;IdCostCenter&lt;/p&gt;" style="verticalAlign=top;align=left;overflow=fill;fontSize=12;fontFamily=Helvetica;html=1;strokeColor=#003366;shadow=1;fillColor=#D4E1F5;fontColor=#003366" vertex="1" parent="1">
          <mxGeometry x="610" y="913.3599999999992" width="160" height="90" as="geometry" />
        </mxCell>
        <mxCell id="amXkMa5cYuzht5AST0yX-16" value="&lt;p style=&quot;margin: 0px ; margin-top: 4px ; text-align: center ; text-decoration: underline&quot;&gt;&lt;strong&gt;ProjectDocument&lt;/strong&gt;&lt;/p&gt;&lt;hr&gt;&lt;p style=&quot;margin: 0px ; margin-left: 8px&quot;&gt;IdProjectDocument&lt;/p&gt;&lt;p style=&quot;margin: 0px ; margin-left: 8px&quot;&gt;IdProject&lt;/p&gt;&lt;p style=&quot;margin: 0px ; margin-left: 8px&quot;&gt;IdDocument&lt;/p&gt;" style="verticalAlign=top;align=left;overflow=fill;fontSize=12;fontFamily=Helvetica;html=1;strokeColor=#003366;shadow=1;fillColor=#D4E1F5;fontColor=#003366" vertex="1" parent="1">
          <mxGeometry x="420.00000000000006" y="924.52" width="160" height="90" as="geometry" />
        </mxCell>
        <mxCell id="amXkMa5cYuzht5AST0yX-17" value="&lt;p style=&quot;margin: 0px; margin-top: 4px; text-align: center; text-decoration: underline;&quot;&gt;&lt;strong&gt;Tasks&lt;/strong&gt;&lt;/p&gt;&lt;hr /&gt;&lt;p style=&quot;margin: 0px; margin-left: 8px;&quot;&gt;IdTask&lt;/p&gt;&lt;p style=&quot;margin: 0px; margin-left: 8px;&quot;&gt;Name&lt;/p&gt;&lt;p style=&quot;margin: 0px; margin-left: 8px;&quot;&gt;Description&lt;/p&gt;&lt;p style=&quot;margin: 0px; margin-left: 8px;&quot;&gt;Work&lt;/p&gt;&lt;p style=&quot;margin: 0px; margin-left: 8px;&quot;&gt;IdProject&lt;/p&gt;&lt;p style=&quot;margin: 0px; margin-left: 8px;&quot;&gt;StartDate&lt;/p&gt;&lt;p style=&quot;margin: 0px; margin-left: 8px;&quot;&gt;EndDate&lt;/p&gt;&lt;p style=&quot;margin: 0px; margin-left: 8px;&quot;&gt;CreatedAt&lt;/p&gt;&lt;p style=&quot;margin: 0px; margin-left: 8px;&quot;&gt;UpdatedAt&lt;/p&gt;&lt;p style=&quot;margin: 0px; margin-left: 8px;&quot;&gt;Enabled&lt;/p&gt;" style="verticalAlign=top;align=left;overflow=fill;fontSize=12;fontFamily=Helvetica;html=1;strokeColor=#003366;shadow=1;fillColor=#D4E1F5;fontColor=#003366" vertex="1" parent="1">
          <mxGeometry x="1150" y="138.35999999999973" width="160" height="190" as="geometry" />
        </mxCell>
        <mxCell id="amXkMa5cYuzht5AST0yX-18" value="" style="endArrow=open;endSize=12;startArrow=diamondThin;startSize=14;startFill=0;edgeStyle=orthogonalEdgeStyle;rounded=0;" edge="1" parent="1" source="amXkMa5cYuzht5AST0yX-1" target="amXkMa5cYuzht5AST0yX-2">
          <mxGeometry y="160" as="geometry">
            <mxPoint x="-20.00000000000002" y="158.35999999999962" as="sourcePoint" />
            <mxPoint x="139.99999999999997" y="158.35999999999962" as="targetPoint" />
          </mxGeometry>
        </mxCell>
        <mxCell id="amXkMa5cYuzht5AST0yX-19" value="0..n" style="resizable=0;align=left;verticalAlign=top;labelBackgroundColor=#ffffff;fontSize=10;strokeColor=#003366;shadow=1;fillColor=#D4E1F5;fontColor=#003366" connectable="0" vertex="1" parent="amXkMa5cYuzht5AST0yX-18">
          <mxGeometry x="-1" relative="1" as="geometry">
            <mxPoint x="10" as="offset" />
          </mxGeometry>
        </mxCell>
        <mxCell id="amXkMa5cYuzht5AST0yX-20" value="1" style="resizable=0;align=right;verticalAlign=top;labelBackgroundColor=#ffffff;fontSize=10;strokeColor=#003366;shadow=1;fillColor=#D4E1F5;fontColor=#003366" connectable="0" vertex="1" parent="amXkMa5cYuzht5AST0yX-18">
          <mxGeometry x="1" relative="1" as="geometry">
            <mxPoint x="590" y="105" as="offset" />
          </mxGeometry>
        </mxCell>
        <mxCell id="amXkMa5cYuzht5AST0yX-21" value="" style="endArrow=open;endSize=12;startArrow=diamondThin;startSize=14;startFill=0;edgeStyle=orthogonalEdgeStyle;rounded=0" edge="1" parent="1" source="amXkMa5cYuzht5AST0yX-5" target="amXkMa5cYuzht5AST0yX-4">
          <mxGeometry x="519.3599999999999" y="180" as="geometry">
            <mxPoint x="499.3599999999999" y="178.35999999999962" as="sourcePoint" />
            <mxPoint x="659.3599999999999" y="178.35999999999962" as="targetPoint" />
          </mxGeometry>
        </mxCell>
        <mxCell id="amXkMa5cYuzht5AST0yX-22" value="0..n" style="resizable=0;align=left;verticalAlign=top;labelBackgroundColor=#ffffff;fontSize=10;strokeColor=#003366;shadow=1;fillColor=#D4E1F5;fontColor=#003366" connectable="0" vertex="1" parent="amXkMa5cYuzht5AST0yX-21">
          <mxGeometry x="-1" relative="1" as="geometry">
            <mxPoint x="8.919999999999618" as="offset" />
          </mxGeometry>
        </mxCell>
        <mxCell id="amXkMa5cYuzht5AST0yX-23" value="1" style="resizable=0;align=right;verticalAlign=top;labelBackgroundColor=#ffffff;fontSize=10;strokeColor=#003366;shadow=1;fillColor=#D4E1F5;fontColor=#003366" connectable="0" vertex="1" parent="amXkMa5cYuzht5AST0yX-21">
          <mxGeometry x="1" relative="1" as="geometry">
            <mxPoint x="-550" y="-159.99999999999997" as="offset" />
          </mxGeometry>
        </mxCell>
        <mxCell id="amXkMa5cYuzht5AST0yX-24" value="" style="endArrow=open;endSize=12;startArrow=diamondThin;startSize=14;startFill=0;edgeStyle=orthogonalEdgeStyle;exitX=1;exitY=0.25;rounded=0" edge="1" parent="1" source="amXkMa5cYuzht5AST0yX-11" target="amXkMa5cYuzht5AST0yX-4">
          <mxGeometry x="769.3599999999999" y="450" as="geometry">
            <mxPoint x="749.3599999999999" y="448.3599999999996" as="sourcePoint" />
            <mxPoint x="909.3599999999999" y="448.3599999999996" as="targetPoint" />
          </mxGeometry>
        </mxCell>
        <mxCell id="amXkMa5cYuzht5AST0yX-25" value="0..n" style="resizable=0;align=left;verticalAlign=top;labelBackgroundColor=#ffffff;fontSize=10;strokeColor=#003366;shadow=1;fillColor=#D4E1F5;fontColor=#003366" connectable="0" vertex="1" parent="amXkMa5cYuzht5AST0yX-24">
          <mxGeometry x="-1" relative="1" as="geometry">
            <mxPoint x="8.919999999999803" y="3.039999999999177" as="offset" />
          </mxGeometry>
        </mxCell>
        <mxCell id="amXkMa5cYuzht5AST0yX-26" value="1" style="resizable=0;align=right;verticalAlign=top;labelBackgroundColor=#ffffff;fontSize=10;strokeColor=#003366;shadow=1;fillColor=#D4E1F5;fontColor=#003366" connectable="0" vertex="1" parent="amXkMa5cYuzht5AST0yX-24">
          <mxGeometry x="1" relative="1" as="geometry">
            <mxPoint x="-10" as="offset" />
          </mxGeometry>
        </mxCell>
        <mxCell id="amXkMa5cYuzht5AST0yX-27" value="" style="endArrow=open;endSize=12;startArrow=diamondThin;startSize=14;startFill=0;edgeStyle=orthogonalEdgeStyle;rounded=0;" edge="1" parent="1" source="amXkMa5cYuzht5AST0yX-5" target="amXkMa5cYuzht5AST0yX-11">
          <mxGeometry x="389.35999999999996" y="350" as="geometry">
            <mxPoint x="369.35999999999996" y="348.3599999999996" as="sourcePoint" />
            <mxPoint x="529.3599999999999" y="348.3599999999996" as="targetPoint" />
          </mxGeometry>
        </mxCell>
        <mxCell id="amXkMa5cYuzht5AST0yX-28" value="0..n" style="resizable=0;align=left;verticalAlign=top;labelBackgroundColor=#ffffff;fontSize=10;strokeColor=#003366;shadow=1;fillColor=#D4E1F5;fontColor=#003366" connectable="0" vertex="1" parent="amXkMa5cYuzht5AST0yX-27">
          <mxGeometry x="-1" relative="1" as="geometry">
            <mxPoint x="8.91999999999958" as="offset" />
          </mxGeometry>
        </mxCell>
        <mxCell id="amXkMa5cYuzht5AST0yX-29" value="1" style="resizable=0;align=right;verticalAlign=top;labelBackgroundColor=#ffffff;fontSize=10;strokeColor=#003366;shadow=1;fillColor=#D4E1F5;fontColor=#003366" connectable="0" vertex="1" parent="amXkMa5cYuzht5AST0yX-27">
          <mxGeometry x="1" relative="1" as="geometry">
            <mxPoint x="18.919999999999582" y="-21.960000000000644" as="offset" />
          </mxGeometry>
        </mxCell>
        <mxCell id="amXkMa5cYuzht5AST0yX-30" value="" style="endArrow=open;endSize=12;startArrow=diamondThin;startSize=14;startFill=0;edgeStyle=orthogonalEdgeStyle;exitX=0;exitY=0.25;rounded=0" edge="1" parent="1" source="amXkMa5cYuzht5AST0yX-8" target="amXkMa5cYuzht5AST0yX-4">
          <mxGeometry x="1209.36" y="170" as="geometry">
            <mxPoint x="1189.36" y="168.35999999999962" as="sourcePoint" />
            <mxPoint x="1349.36" y="168.35999999999962" as="targetPoint" />
          </mxGeometry>
        </mxCell>
        <mxCell id="amXkMa5cYuzht5AST0yX-31" value="0..n" style="resizable=0;align=left;verticalAlign=top;labelBackgroundColor=#ffffff;fontSize=10;strokeColor=#003366;shadow=1;fillColor=#D4E1F5;fontColor=#003366" connectable="0" vertex="1" parent="amXkMa5cYuzht5AST0yX-30">
          <mxGeometry x="-1" relative="1" as="geometry">
            <mxPoint x="-30" y="7.499999999999728" as="offset" />
          </mxGeometry>
        </mxCell>
        <mxCell id="amXkMa5cYuzht5AST0yX-32" value="1" style="resizable=0;align=right;verticalAlign=top;labelBackgroundColor=#ffffff;fontSize=10;strokeColor=#003366;shadow=1;fillColor=#D4E1F5;fontColor=#003366" connectable="0" vertex="1" parent="amXkMa5cYuzht5AST0yX-30">
          <mxGeometry x="1" relative="1" as="geometry">
            <mxPoint x="20" as="offset" />
          </mxGeometry>
        </mxCell>
        <mxCell id="amXkMa5cYuzht5AST0yX-33" value="" style="endArrow=open;endSize=12;startArrow=diamondThin;startSize=14;startFill=0;edgeStyle=orthogonalEdgeStyle;rounded=0;" edge="1" parent="1" source="amXkMa5cYuzht5AST0yX-9" target="amXkMa5cYuzht5AST0yX-8">
          <mxGeometry x="1269.36" y="180" as="geometry">
            <mxPoint x="1249.36" y="178.35999999999962" as="sourcePoint" />
            <mxPoint x="1409.36" y="178.35999999999962" as="targetPoint" />
          </mxGeometry>
        </mxCell>
        <mxCell id="amXkMa5cYuzht5AST0yX-34" value="0..n" style="resizable=0;align=left;verticalAlign=top;labelBackgroundColor=#ffffff;fontSize=10;strokeColor=#003366;shadow=1;fillColor=#D4E1F5;fontColor=#003366" connectable="0" vertex="1" parent="amXkMa5cYuzht5AST0yX-33">
          <mxGeometry x="-1" relative="1" as="geometry">
            <mxPoint x="10" as="offset" />
          </mxGeometry>
        </mxCell>
        <mxCell id="amXkMa5cYuzht5AST0yX-35" value="1" style="resizable=0;align=right;verticalAlign=top;labelBackgroundColor=#ffffff;fontSize=10;strokeColor=#003366;shadow=1;fillColor=#D4E1F5;fontColor=#003366" connectable="0" vertex="1" parent="amXkMa5cYuzht5AST0yX-33">
          <mxGeometry x="1" relative="1" as="geometry">
            <mxPoint x="20" y="-20" as="offset" />
          </mxGeometry>
        </mxCell>
        <mxCell id="amXkMa5cYuzht5AST0yX-36" value="" style="endArrow=open;endSize=12;startArrow=diamondThin;startSize=14;startFill=0;edgeStyle=orthogonalEdgeStyle;entryX=0.75;entryY=1;rounded=0;" edge="1" parent="1" source="amXkMa5cYuzht5AST0yX-15" target="amXkMa5cYuzht5AST0yX-11">
          <mxGeometry x="479.35999999999996" y="790" as="geometry">
            <mxPoint x="459.35999999999996" y="788.3599999999997" as="sourcePoint" />
            <mxPoint x="619.3599999999999" y="788.3599999999997" as="targetPoint" />
          </mxGeometry>
        </mxCell>
        <mxCell id="amXkMa5cYuzht5AST0yX-37" value="0..n" style="resizable=0;align=left;verticalAlign=top;labelBackgroundColor=#ffffff;fontSize=10;strokeColor=#003366;shadow=1;fillColor=#D4E1F5;fontColor=#003366" connectable="0" vertex="1" parent="amXkMa5cYuzht5AST0yX-36">
          <mxGeometry x="-1" relative="1" as="geometry">
            <mxPoint x="-30" y="-97.50000000000027" as="offset" />
          </mxGeometry>
        </mxCell>
        <mxCell id="amXkMa5cYuzht5AST0yX-38" value="1" style="resizable=0;align=right;verticalAlign=top;labelBackgroundColor=#ffffff;fontSize=10;strokeColor=#003366;shadow=1;fillColor=#D4E1F5;fontColor=#003366" connectable="0" vertex="1" parent="amXkMa5cYuzht5AST0yX-36">
          <mxGeometry x="1" relative="1" as="geometry">
            <mxPoint x="-11.080000000000421" as="offset" />
          </mxGeometry>
        </mxCell>
        <mxCell id="amXkMa5cYuzht5AST0yX-39" value="" style="endArrow=open;endSize=12;startArrow=diamondThin;startSize=14;startFill=0;edgeStyle=orthogonalEdgeStyle;rounded=0;" edge="1" parent="1" source="amXkMa5cYuzht5AST0yX-15" target="amXkMa5cYuzht5AST0yX-14">
          <mxGeometry x="469.3599999999999" y="526.1600000000003" as="geometry">
            <mxPoint x="449.3599999999999" y="524.52" as="sourcePoint" />
            <mxPoint x="960" y="1059.5200000000002" as="targetPoint" />
          </mxGeometry>
        </mxCell>
        <mxCell id="amXkMa5cYuzht5AST0yX-40" value="0..n" style="resizable=0;align=left;verticalAlign=top;labelBackgroundColor=#ffffff;fontSize=10;strokeColor=#003366;shadow=1;fillColor=#D4E1F5;fontColor=#003366" connectable="0" vertex="1" parent="amXkMa5cYuzht5AST0yX-39">
          <mxGeometry x="-1" relative="1" as="geometry">
            <mxPoint x="10" as="offset" />
          </mxGeometry>
        </mxCell>
        <mxCell id="amXkMa5cYuzht5AST0yX-41" value="1" style="resizable=0;align=right;verticalAlign=top;labelBackgroundColor=#ffffff;fontSize=10;strokeColor=#003366;shadow=1;fillColor=#D4E1F5;fontColor=#003366" connectable="0" vertex="1" parent="amXkMa5cYuzht5AST0yX-39">
          <mxGeometry x="1" relative="1" as="geometry">
            <mxPoint x="-10" as="offset" />
          </mxGeometry>
        </mxCell>
        <mxCell id="amXkMa5cYuzht5AST0yX-42" value="" style="endArrow=open;endSize=12;startArrow=diamondThin;startSize=14;startFill=0;edgeStyle=orthogonalEdgeStyle;entryX=0.25;entryY=1;rounded=0" edge="1" parent="1" source="amXkMa5cYuzht5AST0yX-16" target="amXkMa5cYuzht5AST0yX-11">
          <mxGeometry x="419.35999999999996" y="820" as="geometry">
            <mxPoint x="399.35999999999996" y="818.3599999999997" as="sourcePoint" />
            <mxPoint x="559.3599999999999" y="818.3599999999997" as="targetPoint" />
          </mxGeometry>
        </mxCell>
        <mxCell id="amXkMa5cYuzht5AST0yX-43" value="0..n" style="resizable=0;align=left;verticalAlign=top;labelBackgroundColor=#ffffff;fontSize=10;strokeColor=#003366;shadow=1;fillColor=#D4E1F5;fontColor=#003366" connectable="0" vertex="1" parent="amXkMa5cYuzht5AST0yX-42">
          <mxGeometry x="-1" relative="1" as="geometry">
            <mxPoint x="10" y="-26.160000000000235" as="offset" />
          </mxGeometry>
        </mxCell>
        <mxCell id="amXkMa5cYuzht5AST0yX-44" value="1" style="resizable=0;align=right;verticalAlign=top;labelBackgroundColor=#ffffff;fontSize=10;strokeColor=#003366;shadow=1;fillColor=#D4E1F5;fontColor=#003366" connectable="0" vertex="1" parent="amXkMa5cYuzht5AST0yX-42">
          <mxGeometry x="1" relative="1" as="geometry">
            <mxPoint x="-11.080000000000421" as="offset" />
          </mxGeometry>
        </mxCell>
        <mxCell id="amXkMa5cYuzht5AST0yX-45" value="" style="endArrow=open;endSize=12;startArrow=diamondThin;startSize=14;startFill=0;edgeStyle=orthogonalEdgeStyle;rounded=0;" edge="1" parent="1" source="amXkMa5cYuzht5AST0yX-13" target="amXkMa5cYuzht5AST0yX-8">
          <mxGeometry x="1079.36" y="560" as="geometry">
            <mxPoint x="1059.36" y="558.3599999999997" as="sourcePoint" />
            <mxPoint x="1219.36" y="558.3599999999997" as="targetPoint" />
          </mxGeometry>
        </mxCell>
        <mxCell id="amXkMa5cYuzht5AST0yX-46" value="0..n" style="resizable=0;align=left;verticalAlign=top;labelBackgroundColor=#ffffff;fontSize=10;strokeColor=#003366;shadow=1;fillColor=#D4E1F5;fontColor=#003366" connectable="0" vertex="1" parent="amXkMa5cYuzht5AST0yX-45">
          <mxGeometry x="-1" relative="1" as="geometry">
            <mxPoint x="10.00000000000009" y="-22.499999999999915" as="offset" />
          </mxGeometry>
        </mxCell>
        <mxCell id="amXkMa5cYuzht5AST0yX-47" value="1" style="resizable=0;align=right;verticalAlign=top;labelBackgroundColor=#ffffff;fontSize=10;strokeColor=#003366;shadow=1;fillColor=#D4E1F5;fontColor=#003366" connectable="0" vertex="1" parent="amXkMa5cYuzht5AST0yX-45">
          <mxGeometry x="1" relative="1" as="geometry">
            <mxPoint x="20" as="offset" />
          </mxGeometry>
        </mxCell>
        <mxCell id="amXkMa5cYuzht5AST0yX-48" value="" style="endArrow=open;endSize=12;startArrow=diamondThin;startSize=14;startFill=0;edgeStyle=orthogonalEdgeStyle;rounded=0;" edge="1" parent="1" source="amXkMa5cYuzht5AST0yX-9" target="amXkMa5cYuzht5AST0yX-12">
          <mxGeometry x="1309.36" y="540" as="geometry">
            <mxPoint x="1289.36" y="538.3599999999997" as="sourcePoint" />
            <mxPoint x="1449.36" y="538.3599999999997" as="targetPoint" />
          </mxGeometry>
        </mxCell>
        <mxCell id="amXkMa5cYuzht5AST0yX-49" value="0..n" style="resizable=0;align=left;verticalAlign=top;labelBackgroundColor=#ffffff;fontSize=10;strokeColor=#003366;shadow=1;fillColor=#D4E1F5;fontColor=#003366" connectable="0" vertex="1" parent="amXkMa5cYuzht5AST0yX-48">
          <mxGeometry x="-1" relative="1" as="geometry">
            <mxPoint x="10" as="offset" />
          </mxGeometry>
        </mxCell>
        <mxCell id="amXkMa5cYuzht5AST0yX-50" value="1" style="resizable=0;align=right;verticalAlign=top;labelBackgroundColor=#ffffff;fontSize=10;strokeColor=#003366;shadow=1;fillColor=#D4E1F5;fontColor=#003366" connectable="0" vertex="1" parent="amXkMa5cYuzht5AST0yX-48">
          <mxGeometry x="1" relative="1" as="geometry">
            <mxPoint x="-10" as="offset" />
          </mxGeometry>
        </mxCell>
        <mxCell id="amXkMa5cYuzht5AST0yX-51" value="" style="endArrow=open;endSize=12;startArrow=diamondThin;startSize=14;startFill=0;edgeStyle=orthogonalEdgeStyle;rounded=0;" edge="1" parent="1" source="amXkMa5cYuzht5AST0yX-9" target="amXkMa5cYuzht5AST0yX-17">
          <mxGeometry x="1119.36" y="540" as="geometry">
            <mxPoint x="1099.36" y="538.3599999999997" as="sourcePoint" />
            <mxPoint x="1259.36" y="538.3599999999997" as="targetPoint" />
          </mxGeometry>
        </mxCell>
        <mxCell id="amXkMa5cYuzht5AST0yX-52" value="0..n" style="resizable=0;align=left;verticalAlign=top;labelBackgroundColor=#ffffff;fontSize=10;strokeColor=#003366;shadow=1;fillColor=#D4E1F5;fontColor=#003366" connectable="0" vertex="1" parent="amXkMa5cYuzht5AST0yX-51">
          <mxGeometry x="-1" relative="1" as="geometry">
            <mxPoint x="10" y="-20" as="offset" />
          </mxGeometry>
        </mxCell>
        <mxCell id="amXkMa5cYuzht5AST0yX-53" value="1" style="resizable=0;align=right;verticalAlign=top;labelBackgroundColor=#ffffff;fontSize=10;strokeColor=#003366;shadow=1;fillColor=#D4E1F5;fontColor=#003366" connectable="0" vertex="1" parent="amXkMa5cYuzht5AST0yX-51">
          <mxGeometry x="1" relative="1" as="geometry">
            <mxPoint x="20" as="offset" />
          </mxGeometry>
        </mxCell>
        <mxCell id="amXkMa5cYuzht5AST0yX-54" value="" style="endArrow=open;endSize=12;startArrow=diamondThin;startSize=14;startFill=0;edgeStyle=orthogonalEdgeStyle;rounded=0;" edge="1" parent="1" source="amXkMa5cYuzht5AST0yX-9" target="amXkMa5cYuzht5AST0yX-4">
          <mxGeometry x="1389.36" y="130" as="geometry">
            <mxPoint x="1369.36" y="128.35999999999962" as="sourcePoint" />
            <mxPoint x="1529.36" y="128.35999999999962" as="targetPoint" />
          </mxGeometry>
        </mxCell>
        <mxCell id="amXkMa5cYuzht5AST0yX-55" value="0..n" style="resizable=0;align=left;verticalAlign=top;labelBackgroundColor=#ffffff;fontSize=10;strokeColor=#003366;shadow=1;fillColor=#D4E1F5;fontColor=#003366" connectable="0" vertex="1" parent="amXkMa5cYuzht5AST0yX-54">
          <mxGeometry x="-1" relative="1" as="geometry">
            <mxPoint x="-30" as="offset" />
          </mxGeometry>
        </mxCell>
        <mxCell id="amXkMa5cYuzht5AST0yX-56" value="1" style="resizable=0;align=right;verticalAlign=top;labelBackgroundColor=#ffffff;fontSize=10;strokeColor=#003366;shadow=1;fillColor=#D4E1F5;fontColor=#003366" connectable="0" vertex="1" parent="amXkMa5cYuzht5AST0yX-54">
          <mxGeometry x="1" relative="1" as="geometry">
            <mxPoint x="20" y="2.7284841053187846e-13" as="offset" />
          </mxGeometry>
        </mxCell>
        <mxCell id="amXkMa5cYuzht5AST0yX-57" value="" style="endArrow=open;endSize=12;startArrow=diamondThin;startSize=14;startFill=0;edgeStyle=orthogonalEdgeStyle;rounded=0;" edge="1" parent="1" source="amXkMa5cYuzht5AST0yX-2" target="amXkMa5cYuzht5AST0yX-6">
          <mxGeometry x="519.3599999999999" y="200" as="geometry">
            <mxPoint x="499.3599999999999" y="198.35999999999962" as="sourcePoint" />
            <mxPoint x="659.3599999999999" y="198.35999999999962" as="targetPoint" />
          </mxGeometry>
        </mxCell>
        <mxCell id="amXkMa5cYuzht5AST0yX-58" value="0..n" style="resizable=0;align=left;verticalAlign=top;labelBackgroundColor=#ffffff;fontSize=10;strokeColor=#003366;shadow=1;fillColor=#D4E1F5;fontColor=#003366" connectable="0" vertex="1" parent="amXkMa5cYuzht5AST0yX-57">
          <mxGeometry x="-1" relative="1" as="geometry">
            <mxPoint x="-40" as="offset" />
          </mxGeometry>
        </mxCell>
        <mxCell id="amXkMa5cYuzht5AST0yX-59" value="1" style="resizable=0;align=right;verticalAlign=top;labelBackgroundColor=#ffffff;fontSize=10;strokeColor=#003366;shadow=1;fillColor=#D4E1F5;fontColor=#003366" connectable="0" vertex="1" parent="amXkMa5cYuzht5AST0yX-57">
          <mxGeometry x="1" relative="1" as="geometry">
            <mxPoint x="19.99999999999981" y="-24.999999999999815" as="offset" />
          </mxGeometry>
        </mxCell>
        <mxCell id="amXkMa5cYuzht5AST0yX-60" value="" style="endArrow=open;endSize=12;startArrow=diamondThin;startSize=14;startFill=0;edgeStyle=orthogonalEdgeStyle;rounded=0;" edge="1" parent="1" source="amXkMa5cYuzht5AST0yX-7" target="amXkMa5cYuzht5AST0yX-3">
          <mxGeometry x="620" y="340" as="geometry">
            <mxPoint x="600" y="338.3599999999996" as="sourcePoint" />
            <mxPoint x="760" y="338.3599999999996" as="targetPoint" />
          </mxGeometry>
        </mxCell>
        <mxCell id="amXkMa5cYuzht5AST0yX-61" value="0..n" style="resizable=0;align=left;verticalAlign=top;labelBackgroundColor=#ffffff;fontSize=10;strokeColor=#003366;shadow=1;fillColor=#D4E1F5;fontColor=#003366" connectable="0" vertex="1" parent="amXkMa5cYuzht5AST0yX-60">
          <mxGeometry x="-1" relative="1" as="geometry">
            <mxPoint x="10" as="offset" />
          </mxGeometry>
        </mxCell>
        <mxCell id="amXkMa5cYuzht5AST0yX-62" value="1" style="resizable=0;align=right;verticalAlign=top;labelBackgroundColor=#ffffff;fontSize=10;strokeColor=#003366;shadow=1;fillColor=#D4E1F5;fontColor=#003366" connectable="0" vertex="1" parent="amXkMa5cYuzht5AST0yX-60">
          <mxGeometry x="1" relative="1" as="geometry">
            <mxPoint x="20" y="-24.99999999999981" as="offset" />
          </mxGeometry>
        </mxCell>
        <mxCell id="amXkMa5cYuzht5AST0yX-63" value="" style="endArrow=open;endSize=12;startArrow=diamondThin;startSize=14;startFill=0;edgeStyle=orthogonalEdgeStyle;rounded=0;" edge="1" parent="1" source="amXkMa5cYuzht5AST0yX-11" target="amXkMa5cYuzht5AST0yX-6">
          <mxGeometry x="369.35999999999996" y="360" as="geometry">
            <mxPoint x="349.35999999999996" y="358.3599999999996" as="sourcePoint" />
            <mxPoint x="509.3599999999999" y="358.3599999999996" as="targetPoint" />
            <Array as="points" />
          </mxGeometry>
        </mxCell>
        <mxCell id="amXkMa5cYuzht5AST0yX-64" value="0..n" style="resizable=0;align=left;verticalAlign=top;labelBackgroundColor=#ffffff;fontSize=10;strokeColor=#003366;shadow=1;fillColor=#D4E1F5;fontColor=#003366" connectable="0" vertex="1" parent="amXkMa5cYuzht5AST0yX-63">
          <mxGeometry x="-1" relative="1" as="geometry">
            <mxPoint x="-31.08000000000042" as="offset" />
          </mxGeometry>
        </mxCell>
        <mxCell id="amXkMa5cYuzht5AST0yX-65" value="1" style="resizable=0;align=right;verticalAlign=top;labelBackgroundColor=#ffffff;fontSize=10;strokeColor=#003366;shadow=1;fillColor=#D4E1F5;fontColor=#003366" connectable="0" vertex="1" parent="amXkMa5cYuzht5AST0yX-63">
          <mxGeometry x="1" relative="1" as="geometry">
            <mxPoint x="19.99999999999981" y="1.8947806286936006e-13" as="offset" />
          </mxGeometry>
        </mxCell>
        <mxCell id="amXkMa5cYuzht5AST0yX-66" value="Use" style="endArrow=open;endSize=12;dashed=1;rounded=0;" edge="1" parent="1" source="amXkMa5cYuzht5AST0yX-5" target="amXkMa5cYuzht5AST0yX-1">
          <mxGeometry x="430" y="50" as="geometry">
            <mxPoint x="410" y="48.35999999999963" as="sourcePoint" />
            <mxPoint x="570" y="48.35999999999963" as="targetPoint" />
          </mxGeometry>
        </mxCell>
        <mxCell id="amXkMa5cYuzht5AST0yX-67" value="1" style="endArrow=open;endSize=12;startArrow=diamondThin;startSize=14;startFill=1;edgeStyle=orthogonalEdgeStyle;align=left;verticalAlign=bottom;rounded=0;" edge="1" parent="1" source="amXkMa5cYuzht5AST0yX-3" target="amXkMa5cYuzht5AST0yX-2">
          <mxGeometry x="-0.8181818181818175" y="4.999999999999702" relative="1" as="geometry">
            <mxPoint x="59.99999999999998" y="508.3599999999996" as="sourcePoint" />
            <mxPoint x="219.99999999999997" y="508.3599999999996" as="targetPoint" />
            <mxPoint as="offset" />
          </mxGeometry>
        </mxCell>
        <mxCell id="amXkMa5cYuzht5AST0yX-68" value="" style="endArrow=none;edgeStyle=orthogonalEdgeStyle;rounded=0;" edge="1" parent="1" source="amXkMa5cYuzht5AST0yX-10" target="amXkMa5cYuzht5AST0yX-16">
          <mxGeometry x="190" y="950" as="geometry">
            <mxPoint x="169.99999999999997" y="948.3599999999997" as="sourcePoint" />
            <mxPoint x="330" y="948.3599999999997" as="targetPoint" />
          </mxGeometry>
        </mxCell>
        <mxCell id="amXkMa5cYuzht5AST0yX-69" value="parent" style="resizable=0;align=left;verticalAlign=bottom;labelBackgroundColor=#ffffff;fontSize=10;strokeColor=#003366;shadow=1;fillColor=#D4E1F5;fontColor=#003366" connectable="0" vertex="1" parent="amXkMa5cYuzht5AST0yX-68">
          <mxGeometry x="-1" relative="1" as="geometry">
            <mxPoint x="10" y="-10" as="offset" />
          </mxGeometry>
        </mxCell>
        <mxCell id="amXkMa5cYuzht5AST0yX-70" value="child" style="resizable=0;align=right;verticalAlign=bottom;labelBackgroundColor=#ffffff;fontSize=10;strokeColor=#003366;shadow=1;fillColor=#D4E1F5;fontColor=#003366" connectable="0" vertex="1" parent="amXkMa5cYuzht5AST0yX-68">
          <mxGeometry x="1" relative="1" as="geometry">
            <mxPoint x="-10" y="23.83999999999977" as="offset" />
          </mxGeometry>
        </mxCell>
        <mxCell id="amXkMa5cYuzht5AST0yX-71" value="" style="endArrow=none;edgeStyle=orthogonalEdgeStyle;rounded=0;" edge="1" parent="1" source="amXkMa5cYuzht5AST0yX-14" target="amXkMa5cYuzht5AST0yX-13">
          <mxGeometry x="910" y="972.4999999999998" as="geometry">
            <mxPoint x="890" y="970.8599999999994" as="sourcePoint" />
            <mxPoint x="1050" y="970.8599999999994" as="targetPoint" />
          </mxGeometry>
        </mxCell>
        <mxCell id="amXkMa5cYuzht5AST0yX-72" value="parent" style="resizable=0;align=left;verticalAlign=bottom;labelBackgroundColor=#ffffff;fontSize=10;strokeColor=#003366;shadow=1;fillColor=#D4E1F5;fontColor=#003366" connectable="0" vertex="1" parent="amXkMa5cYuzht5AST0yX-71">
          <mxGeometry x="-1" relative="1" as="geometry">
            <mxPoint x="10" as="offset" />
          </mxGeometry>
        </mxCell>
        <mxCell id="amXkMa5cYuzht5AST0yX-73" value="child" style="resizable=0;align=right;verticalAlign=bottom;labelBackgroundColor=#ffffff;fontSize=10;strokeColor=#003366;shadow=1;fillColor=#D4E1F5;fontColor=#003366" connectable="0" vertex="1" parent="amXkMa5cYuzht5AST0yX-71">
          <mxGeometry x="1" relative="1" as="geometry">
            <mxPoint x="-10" y="25" as="offset" />
          </mxGeometry>
        </mxCell>
        <mxCell id="amXkMa5cYuzht5AST0yX-74" value="" style="endArrow=block;endFill=1;edgeStyle=orthogonalEdgeStyle;align=left;verticalAlign=top;entryX=1;entryY=0.75;exitX=0;exitY=0.75;rounded=0" edge="1" parent="1" source="amXkMa5cYuzht5AST0yX-8" target="amXkMa5cYuzht5AST0yX-11">
          <mxGeometry x="-1" relative="1" as="geometry">
            <mxPoint x="890" y="838.3599999999997" as="sourcePoint" />
            <mxPoint x="1050" y="838.3599999999997" as="targetPoint" />
            <Array as="points">
              <mxPoint x="890" y="806.3599999999997" />
              <mxPoint x="890" y="680.3599999999997" />
            </Array>
          </mxGeometry>
        </mxCell>
        <mxCell id="amXkMa5cYuzht5AST0yX-75" value="1" style="resizable=0;align=left;verticalAlign=bottom;labelBackgroundColor=#ffffff;fontSize=10" connectable="0" vertex="1" parent="amXkMa5cYuzht5AST0yX-74">
          <mxGeometry x="-1" relative="1" as="geometry">
            <mxPoint x="-19.99999999999982" y="2.499999999999909" as="offset" />
          </mxGeometry>
        </mxCell>
      </root>
    </mxGraphModel>
  </diagram>
</mxfile>
